HIERARCHY
ROOT Hips
{
    OFFSET 0.000000 0.000000 0.000000
    CHANNELS 6 Xposition Yposition Zposition Zrotation Xrotation Yrotation
    JOINT Spine
    {
        OFFSET -0.000000 0.081317 0.000000
        CHANNELS 3 Zrotation Xrotation Yrotation
        JOINT Spine1
        {
            OFFSET -0.000000 0.225200 0.000000
            CHANNELS 3 Zrotation Xrotation Yrotation
            JOINT Neck
            {
                OFFSET -0.000000 0.224275 0.020389
                CHANNELS 3 Zrotation Xrotation Yrotation
                JOINT Head
                {
                    OFFSET -0.000000 0.138833 -0.019833
                    CHANNELS 3 Zrotation Xrotation Yrotation
                    End Site
                    {
                        OFFSET -0.000000 0.198333 0.000000
                    }
                }
            }
            JOINT LeftShoulder
            {
                OFFSET 0.039732 0.208237 -0.000812
                CHANNELS 3 Zrotation Xrotation Yrotation
                JOINT LeftArm
                {
                    OFFSET 0.110955 0.000000 0.000000
                    CHANNELS 3 Zrotation Xrotation Yrotation
                    JOINT LeftForeArm
                    {
                        OFFSET 0.324523 0.000000 0.000000
                        CHANNELS 3 Zrotation Xrotation Yrotation
                        JOINT LeftHand
                        {
                            OFFSET 0.302601 0.000000 0.000000
                            CHANNELS 3 Zrotation Xrotation Yrotation
                            End Site
                            {
                                OFFSET 0.148750 0.000000 0.000000
                            }
                        }
                    }
                }
            }
            JOINT RightShoulder
            {
                OFFSET -0.039598 0.208237 -0.000812
                CHANNELS 3 Zrotation Xrotation Yrotation
                JOINT RightArm
                {
                    OFFSET -0.110955 0.000000 0.000000
                    CHANNELS 3 Zrotation Xrotation Yrotation
                    JOINT RightForeArm
                    {
                        OFFSET -0.324523 0.000000 0.000000
                        CHANNELS 3 Zrotation Xrotation Yrotation
                        JOINT RightHand
                        {
                            OFFSET -0.302601 0.000000 0.000000
                            CHANNELS 3 Zrotation Xrotation Yrotation
                            End Site
                            {
                                OFFSET -0.148750 0.000000 0.000000
                            }
                        }
                    }
                }
            }
        }
    }
    JOINT LeftUpLeg
    {
        OFFSET 0.099167 0.000000 0.000000
        CHANNELS 3 Zrotation Xrotation Yrotation
        JOINT LeftLeg
        {
            OFFSET -0.000000 -0.380753 0.000000
            CHANNELS 3 Zrotation Xrotation Yrotation
            JOINT LeftFoot
            {
                OFFSET -0.000000 -0.440093 0.000000
                CHANNELS 3 Zrotation Xrotation Yrotation
                JOINT LeftToeBase
                {
                    OFFSET -0.000000 -0.064458 0.148750
                    CHANNELS 3 Zrotation Xrotation Yrotation
                    End Site
                    {
                        OFFSET -0.000000 0.000000 0.039667
                    }
                }
            }
        }
    }
    JOINT RightUpLeg
    {
        OFFSET -0.099167 0.000000 0.000000
        CHANNELS 3 Zrotation Xrotation Yrotation
        JOINT RightLeg
        {
            OFFSET -0.000000 -0.380753 0.000000
            CHANNELS 3 Zrotation Xrotation Yrotation
            JOINT RightFoot
            {
                OFFSET -0.000000 -0.440093 0.000000
                CHANNELS 3 Zrotation Xrotation Yrotation
                JOINT RightToeBase
                {
                    OFFSET -0.000000 -0.064458 0.148750
                    CHANNELS 3 Zrotation Xrotation Yrotation
                    End Site
                    {
                        OFFSET -0.000000 0.000000 0.039667
                    }
                }
            }
        }
    }
}
MOTION
Frames:    9
Frame Time:    0.010000
-0.340054    0.910138    -0.231800    0.696100    -1.508081    53.101761    -1.234911    -20.388088    -2.765447    4.436162    34.336849    -2.220551    3.098043    17.332678    -10.137573    0.800135    -26.708158    -10.211718    -9.207752    0.968699    -8.681460    -25.239346    2.244290    -7.322254    -20.661591    62.377781    -77.292137    45.828438    37.061714    -51.352131    4.143824    -3.683064    7.733642    58.615150    63.369865    -31.173731    -31.791542    -13.004479    92.208405    2.258258    21.568214    12.749383    7.383906    7.779773    24.567934    -1.861069    -4.035472    41.536694    11.949594    21.498140    -56.791431    0.000000    0.000000    0.000000    -5.027869    10.634893    -18.447372    2.142248    -4.187764    0.596471    6.185262    17.086607    -20.927958    0.000000    0.000000    0.000000    
-0.340121    0.910119    -0.231856    0.683154    -1.497391    53.124439    -1.241705    -20.393702    -2.773530    4.436883    34.323933    -2.222466    3.139739    17.314817    -10.179955    0.788136    -26.670877    -10.260527    -9.197970    0.975502    -8.691813    -25.247009    2.246107    -7.325349    -20.646250    62.369850    -77.304459    45.816383    37.062557    -51.348721    4.147526    -3.680378    7.726331    58.611374    63.382595    -31.172945    -31.783667    -13.006572    92.208916    2.238263    21.555614    12.762066    7.389871    7.744323    24.532398    -1.857893    -4.019060    41.536133    11.923795    21.524078    -56.765247    0.000000    0.000000    0.000000    -5.027660    10.619655    -18.473875    2.147886    -4.188148    0.596354    6.176795    17.081848    -20.921160    0.000000    0.000000    0.000000    
-0.340106    0.910131    -0.231813    0.693388    -1.505813    53.107632    -1.235052    -20.384861    -2.758641    4.425360    34.320515    -2.214216    3.162620    17.315350    -10.206470    0.796885    -26.645851    -10.284810    -9.190941    0.972322    -8.692513    -25.253672    2.242845    -7.318213    -20.648258    62.376911    -77.298279    45.813133    37.072140    -51.358788    4.152978    -3.656512    7.733281    58.581501    63.379795    -31.142443    -31.793516    -13.005978    92.201988    2.241157    21.563133    12.739658    7.388573    7.771009    24.554007    -1.859689    -4.031408    41.556095    11.925531    21.534664    -56.776459    0.000000    0.000000    0.000000    -5.025962    10.633387    -18.452787    2.146675    -4.192424    0.605482    6.178826    17.087574    -20.940010    0.000000    0.000000    0.000000    
-0.340108    0.910143    -0.231799    0.697214    -1.512658    53.112835    -1.237573    -20.379135    -2.759224    4.430492    34.319088    -2.215800    3.182017    17.325100    -10.237399    0.813730    -26.639236    -10.310391    -9.189591    0.984347    -8.705910    -25.259106    2.238410    -7.306726    -20.635204    62.368515    -77.307816    45.804153    37.071938    -51.350361    4.153982    -3.665914    7.748607    58.616314    63.374683    -31.183849    -31.789230    -13.000612    92.204552    2.224012    21.563591    12.765231    7.393307    7.784337    24.539871    -1.868802    -4.044928    41.561977    11.962166    21.496941    -56.796799    0.000000    0.000000    0.000000    -5.021782    10.643781    -18.444738    2.148113    -4.197495    0.578677    6.180946    17.090490    -20.933165    0.000000    0.000000    0.000000    
-0.340141    0.910136    -0.231800    0.690897    -1.511858    53.108265    -1.237865    -20.378103    -2.758267    4.430825    34.310463    -2.215148    3.203460    17.326813    -10.263309    0.825282    -26.620003    -10.332985    -9.189487    0.986629    -8.706275    -25.267193    2.236702    -7.302464    -20.631674    62.368023    -77.299706    45.820595    37.062077    -51.363621    4.163841    -3.663819    7.762161    58.609428    63.378208    -31.190443    -31.792372    -12.996741    92.198067    2.222688    21.566971    12.772666    7.398870    7.781163    24.548811    -1.873608    -4.046128    41.540817    11.945421    21.540844    -56.766651    0.000000    0.000000    0.000000    -5.020484    10.634697    -18.431902    2.146817    -4.194810    0.589060    6.188026    17.089441    -20.935602    0.000000    0.000000    0.000000    
-0.340182    0.910137    -0.231823    0.679140    -1.508666    53.115849    -1.235151    -20.381535    -2.761166    4.426457    34.300720    -2.214490    3.230340    17.304224    -10.290438    0.825584    -26.559731    -10.361925    -9.184075    0.990552    -8.714093    -25.277250    2.233026    -7.293507    -20.606947    62.366318    -77.315559    45.830723    37.063465    -51.371849    4.172159    -3.657241    7.769047    58.599373    63.377323    -31.190140    -31.778858    -12.992555    92.203842    2.223139    21.558987    12.766569    7.402588    7.761980    24.528021    -1.867080    -4.045660    41.569027    11.956288    21.523579    -56.788200    0.000000    0.000000    0.000000    -5.017152    10.618584    -18.437593    2.150348    -4.187250    0.587195    6.173210    17.095078    -20.931158    0.000000    0.000000    0.000000    
-0.340247    0.910116    -0.231865    0.658032    -1.506424    53.130257    -1.223881    -20.385120    -2.770616    4.416042    34.286900    -2.214444    3.246921    17.279936    -10.310864    0.842513    -26.496593    -10.378052    -9.173591    1.005171    -8.718814    -25.285252    2.232090    -7.289291    -20.617785    62.350792    -77.306984    45.816525    37.050442    -51.343243    4.179963    -3.658015    7.777599    58.602695    63.380013    -31.197100    -31.784391    -12.990042    92.196083    2.233736    21.564018    12.757219    7.416651    7.732955    24.507526    -1.870214    -4.032818    41.481445    11.900617    21.516359    -56.674229    0.000000    0.000000    0.000000    -5.007067    10.594405    -18.439886    2.155519    -4.178504    0.592434    6.193228    17.079969    -20.968534    0.000000    0.000000    0.000000    
-0.340263    0.910125    -0.231858    0.659267    -1.505777    53.118832    -1.225451    -20.382462    -2.760267    4.419982    34.283493    -2.211965    3.253023    17.273058    -10.329814    0.862679    -26.459396    -10.390842    -9.176706    1.004286    -8.717153    -25.285299    2.232002    -7.289409    -20.619213    62.356163    -77.299812    45.767723    37.086266    -51.336472    4.169154    -3.660011    7.777284    58.616192    63.387047    -31.198130    -31.784267    -12.984076    92.190613    2.229771    21.566069    12.768585    7.414384    7.733652    24.529335    -1.866377    -4.032139    41.516247    11.918991    21.540289    -56.720631    0.000000    0.000000    0.000000    -5.010244    10.589055    -18.428606    2.151187    -4.173901    0.593142    6.200130    17.088028    -20.954657    0.000000    0.000000    0.000000    
-0.340268    0.910129    -0.231857    0.662615    -1.511660    53.117348    -1.220824    -20.368664    -2.754233    4.411300    34.270584    -2.207022    3.277824    17.249304    -10.343152    0.860499    -26.389748    -10.406546    -9.165207    1.024019    -8.727998    -25.295191    2.228286    -7.279490    -20.606802    62.344799    -77.309433    45.790146    37.058891    -51.343948    4.183187    -3.645530    7.781161    58.590778    63.384945    -31.187702    -31.777557    -12.979165    92.195541    2.221500    21.565233    12.770920    7.416439    7.740517    24.544115    -1.862802    -4.034213    41.502670    11.920783    21.528276    -56.741364    0.000000    0.000000    0.000000    -5.008543    10.595899    -18.420902    2.154697    -4.174651    0.590007    6.198425    17.095863    -20.961424    0.000000    0.000000    0.000000    
